<svg xmlns="http://www.w3.org/2000/svg" width="150.211" height="125.799" viewBox="0 0 150.211 125.799">
  <path id="Path_1" data-name="Path 1" d="M68.141,14.153c37.633,0,68.141,17.837,68.141,56.249,0,17.208-9.725,23.591-29.145,44.131-12.35,14.786-18.222,25.419-39,25.419C30.508,139.952,0,108.813,0,70.4S30.508,14.153,68.141,14.153Z" transform="translate(13.93 -14.153)" fill="#e38569"/>
  <text id="موسسه_" data-name="موسسه
" transform="matrix(0.985, -0.174, 0.174, 0.985, 111.933, 33.481)" fill="#bc624c" font-size="18" font-family="SegoeUI-Bold, Segoe UI" font-weight="700"><tspan x="-58.623" y="0">موسسه</tspan><tspan y="0"></tspan><tspan font-family="Vazir-Bold, Vazir"><tspan x="0" y="24"></tspan></tspan></text>
  <text id="موسسه_2" data-name="موسسه
" transform="matrix(0.985, -0.174, 0.174, 0.985, 108.163, 30.971)" fill="#fff" font-size="18" font-family="SegoeUI-Bold, Segoe UI" font-weight="700"><tspan x="-58.623" y="0">موسسه</tspan><tspan y="0"></tspan><tspan font-family="Vazir-Bold, Vazir"><tspan x="0" y="24"></tspan></tspan></text>
  <text id="آموزشی" transform="matrix(0.985, -0.174, 0.174, 0.985, 132.185, 65.489)" fill="#bc624c" font-size="39" font-family="SegoeUI-Bold, Segoe UI" font-weight="700"><tspan x="-120.504" y="0">آموزشی</tspan></text>
  <text id="آموزشی-2" data-name="آموزشی" transform="matrix(0.985, -0.174, 0.174, 0.985, 126.455, 61.719)" fill="#fff" font-size="39" font-family="SegoeUI-Bold, Segoe UI" font-weight="700"><tspan x="-120.504" y="0">آموزشی</tspan></text>
  <text id="سپهر" transform="matrix(0.985, -0.174, 0.174, 0.985, 127.453, 98.112)" fill="#bc624c" font-size="39" font-family="SegoeUI-Bold, Segoe UI" font-weight="700"><tspan x="-81.409" y="0">سپهر</tspan></text>
  <text id="سپهر-2" data-name="سپهر" transform="matrix(0.985, -0.174, 0.174, 0.985, 123.383, 98.112)" fill="#fff" font-size="39" font-family="SegoeUI-Bold, Segoe UI" font-weight="700"><tspan x="-81.409" y="0">سپهر</tspan></text>
</svg>
