<svg xmlns="http://www.w3.org/2000/svg" xmlns:xlink="http://www.w3.org/1999/xlink" width="1519" height="5901.948" viewBox="0 0 1519 5901.948">
  <defs>
    <clipPath id="clip-Web_1920_1">
      <rect width="1519" height="5901.948"/>
    </clipPath>
  </defs>
  <g id="Web_1920_1" data-name="Web 1920 – 1" clip-path="url(#clip-Web_1920_1)">
    <rect width="1519" height="5901.948" fill="#f3f4f6"/>
    <path id="Path_1" data-name="Path 1" d="M450,0C698.528,0,900,201.472,900,450c0,129.483-118.222,184.964-205.918,267.211C613.759,792.544,569.045,900,450,900c-96.429,0-142.17-79.75-215.611-131.532C119.064,687.154,0,602.1,0,450,0,259.379,118.524,96.441,285.879,30.867A448.877,448.877,0,0,1,450,0Z" transform="translate(677)" fill="#fff" opacity="0.495"/>
    <path id="Path_2" data-name="Path 2" d="M600,0c331.371,0,600,268.629,600,600,0,172.644-157.629,246.618-274.557,356.281C818.345,1056.726,758.727,1200,600,1200c-128.572,0-189.56-106.333-287.481-175.375C158.752,916.206,0,802.8,0,600,0,345.839,158.032,128.587,381.172,41.156A598.5,598.5,0,0,1,600,0Z" transform="translate(-407 1232)" fill="#fff" opacity="0.495"/>
    <path id="Path_3" data-name="Path 3" d="M500,0c276.142,0,500,223.858,500,500,0,143.87-131.358,205.515-228.8,296.9C681.955,880.6,632.272,1000,500,1000c-107.143,0-157.967-88.611-239.568-146.146C132.293,763.5,0,669,0,500,0,288.2,131.693,107.156,317.643,34.3A498.753,498.753,0,0,1,500,0Z" transform="translate(1019 3249)" fill="#fff" opacity="0.495"/>
    <path id="Path_4" data-name="Path 4" d="M500,0c276.142,0,500,223.858,500,500,0,143.87-131.358,205.515-228.8,296.9C681.955,880.6,632.272,1000,500,1000c-107.143,0-157.967-88.611-239.568-146.146C132.293,763.5,0,669,0,500,0,288.2,131.693,107.156,317.643,34.3A498.753,498.753,0,0,1,500,0Z" transform="translate(-356 3807)" fill="#fff" opacity="0.495"/>
  </g>
</svg>
