<svg xmlns="http://www.w3.org/2000/svg" width="46" height="46" viewBox="0 0 46 46">
  <g id="Group_89" data-name="Group 89" transform="translate(-21.616 162.362)">
    <g id="Group_88" data-name="Group 88" transform="translate(30 -154)">
      <circle id="Ellipse_7" data-name="Ellipse 7" cx="23" cy="23" r="23" transform="translate(-8.384 -8.362)" fill="#fff"/>
      <path id="Path_36" data-name="Path 36" d="M13.4,0V3.659h2.436V0ZM5.143,3.426,3.421,5.151,6,7.738,7.727,6.013Zm18.945,0L21.5,6.013l1.722,1.725,2.583-2.587ZM14.616,6.1a8.539,8.539,0,1,0,8.526,8.539A8.551,8.551,0,0,0,14.616,6.1Zm0,2.44a6.1,6.1,0,1,1-6.09,6.1A6.076,6.076,0,0,1,14.616,8.539ZM0,13.418v2.44H3.654v-2.44Zm25.578,0v2.44h3.654v-2.44ZM6,21.537,3.421,24.124l1.722,1.725,2.583-2.587Zm17.223,0L21.5,23.262l2.583,2.587,1.722-1.725ZM13.4,25.616v3.659h2.436V25.616Z" fill="#121826"/>
    </g>
  </g>
</svg>
